<?xml version="1.0" encoding="UTF-8"?>
<svg version="1.1" xmlns="http://www.w3.org/2000/svg" width="500" height="500">
<path d="M0 0 C0.99523682 -0.01538818 1.99047363 -0.03077637 3.01586914 -0.04663086 C4.54135376 -0.0177478 4.54135376 -0.0177478 6.09765625 0.01171875 C7.15654053 0.02388428 8.2154248 0.0360498 9.30639648 0.04858398 C17.16107034 0.30662189 23.05573363 1.46852075 29.16015625 6.69921875 C30.14242187 7.45912109 30.14242187 7.45912109 31.14453125 8.234375 C37.2049974 13.50490859 40.65598521 21.18670563 43.16015625 28.69921875 C44.03247538 41.297795 42.58181793 50.17622839 35.16015625 60.69921875 C33.27847531 62.84980934 31.2726135 64.86101002 29.24543571 66.8740015 C28.65457389 67.468669 28.06371206 68.0633365 27.45494533 68.67602423 C25.47368137 70.66759515 23.48538759 72.65199314 21.49703979 74.63648987 C20.06074011 76.07724242 18.62487171 77.51842502 17.18939793 78.96000046 C13.24311247 82.92047023 9.29058395 86.87465765 5.33698082 90.82782066 C1.07424233 95.09220694 -3.18277909 99.36229409 -7.44059753 103.6315918 C-16.26697468 112.47963091 -25.09988135 121.32113169 -33.93470523 130.1607345 C-34.41474034 130.64103079 -34.89477546 131.12132707 -35.38935709 131.6161778 C-35.87036579 132.09744677 -36.35137449 132.57871574 -36.84695921 133.07456863 C-42.17962981 138.41032277 -47.51058837 143.74778647 -52.84148788 149.08530998 C-68.94501339 165.20848084 -85.0501572 181.33003074 -101.16209602 197.44479465 C-101.67729801 197.9600907 -102.19249999 198.47538674 -102.72331415 199.00629782 C-104.81116768 201.09452982 -106.89902844 203.18275458 -108.98689095 205.2709776 C-110.55831965 206.84267801 -112.12974586 208.4143809 -113.70117188 209.98608398 C-114.22043284 210.50543297 -114.7396938 211.02478196 -115.27468995 211.55986879 C-131.59065965 227.87874404 -147.89700342 244.20718599 -164.19628906 260.54272461 C-182.5109948 278.89816505 -200.83420421 297.24506147 -219.16913879 315.58029693 C-221.12455914 317.53581411 -223.07994455 319.49136623 -225.03530502 321.44694328 C-225.75749395 322.16919838 -225.75749395 322.16919838 -226.49427256 322.9060445 C-234.23840978 330.65130108 -241.97437629 338.40466897 -249.70748118 346.16093876 C-257.48102548 353.95733636 -265.26406968 361.74416422 -273.0561399 369.52204818 C-277.27632317 373.73505351 -281.49236188 377.95199779 -285.69760323 382.1799221 C-289.54847885 386.05136982 -293.4107421 389.91106602 -297.2823417 393.76178574 C-298.67976001 395.15570592 -300.072979 396.55385159 -301.46149315 397.95664162 C-311.6049521 408.19762328 -320.27008396 415.84836797 -335.33984375 416.07421875 C-345.59742798 416.10099791 -353.26161914 413.16640046 -361.21484375 406.57421875 C-362.80256183 404.99418318 -364.34711003 403.36928077 -365.83984375 401.69921875 C-366.80664062 400.61833984 -366.80664062 400.61833984 -367.79296875 399.515625 C-372.30949896 393.08906683 -372.45402852 386.30545193 -372.58984375 378.69921875 C-372.61771973 377.69044678 -372.6455957 376.6816748 -372.67431641 375.64233398 C-372.48297948 360.34656213 -362.05454151 351.19099734 -351.89825439 341.12271118 C-350.45546455 339.67415423 -349.01376552 338.22451015 -347.5730598 336.77388036 C-343.62655014 332.80655599 -339.66466814 328.85490661 -335.69999409 324.90574574 C-331.42093723 320.63802015 -327.15631632 316.35590997 -322.88980103 312.07565308 C-315.01820913 304.18312687 -307.13530138 296.30201306 -299.24639449 288.42680388 C-291.95836406 281.15136537 -284.6750158 273.87127988 -277.39626312 266.5865593 C-276.91290543 266.10281968 -276.42954775 265.61908007 -275.93154286 265.12068168 C-273.96931015 263.15689221 -272.00709508 261.19308513 -270.04490904 259.22924904 C-251.64983625 240.81889189 -233.24023175 222.42312761 -214.82405719 204.03388168 C-198.47069936 187.70425448 -182.13032061 171.36174561 -165.80078125 155.00830078 C-147.44299628 136.62373083 -129.0771451 118.24728107 -110.698241 99.88382185 C-108.73837394 97.92555832 -106.77852654 95.96727512 -104.81868744 94.00898361 C-104.336138 93.52682956 -103.85358857 93.04467551 -103.35641642 92.54791074 C-96.07660507 85.2737815 -88.80297244 77.99351262 -81.53232574 70.71022415 C-73.26420388 62.42779766 -64.98693566 54.15461051 -56.69835141 45.89265354 C-52.47010622 41.67754495 -48.24595023 37.45854481 -44.03254318 33.22859955 C-40.17434449 29.35548637 -36.30476419 25.49413543 -32.42583904 21.64178316 C-31.02580614 20.24732862 -29.62995587 18.84865919 -28.23879161 17.4453568 C-11.08223044 0.15064796 -11.08223044 0.15064796 0 0 Z " fill="#020202" transform="translate(396.83984375,24.30078125)"/>
<path d="M0 0 C7.85415973 5.42498887 13.81874987 11.89279721 17 21 C17.6798043 25.00870079 17.74699675 28.87878676 17.6875 32.9375 C17.71521484 33.94490234 17.74292969 34.95230469 17.77148438 35.99023438 C17.73677904 46.78359251 12.77349674 54.74874152 5.35158753 62.31712949 C4.6443875 63.01317592 3.93718747 63.70922234 3.20855713 64.42636108 C2.44277839 65.19993977 1.67699966 65.97351846 0.88801551 66.77053893 C-1.6563807 69.33472524 -4.21808696 71.8808458 -6.78027344 74.42724609 C-8.61816284 76.27191723 -10.4549883 78.11764892 -12.29083252 79.96435547 C-16.74659192 84.44225586 -21.21565057 88.90664601 -25.68975231 93.36621206 C-29.32764214 96.99277489 -32.96057969 100.6242312 -36.59009552 104.25917435 C-37.10816326 104.77800826 -37.62623101 105.29684217 -38.15999778 105.83139832 C-39.21265839 106.88565767 -40.26530783 107.93992818 -41.31794623 108.99420972 C-51.17040443 118.86089829 -61.03808137 128.71225157 -70.91109946 138.55836113 C-79.37034244 146.99526119 -87.81638158 155.44519331 -96.25292969 163.90478516 C-106.06720713 173.7458572 -115.88959209 183.57871984 -125.72494149 193.39873564 C-126.77485189 194.44705341 -127.8247519 195.49538157 -128.87464142 196.54372025 C-129.3911171 197.05942455 -129.90759278 197.57512886 -130.43971924 198.10646056 C-134.06751982 201.72995561 -137.68951007 205.35919599 -141.30925751 208.9907341 C-146.18612213 213.88313566 -151.07616983 218.76202525 -155.9752121 223.63221741 C-157.76852888 225.41893641 -159.55762944 227.209899 -161.34211731 229.00543594 C-163.78354322 231.46057826 -166.23994047 233.89971974 -168.70062256 236.33554077 C-169.39889971 237.04497153 -170.09717685 237.75440228 -170.81661391 238.48533094 C-176.82241625 244.37444516 -184.12713993 249.5807813 -192.83984375 249.69921875 C-194.33233643 249.72278442 -194.33233643 249.72278442 -195.85498047 249.74682617 C-196.87221191 249.72724854 -197.88944336 249.7076709 -198.9375 249.6875 C-199.99855957 249.67243408 -201.05961914 249.65736816 -202.15283203 249.6418457 C-210.03370285 249.36633756 -215.96943853 248.40346669 -222 243 C-222.89847656 242.19949219 -223.79695312 241.39898437 -224.72265625 240.57421875 C-232.88367703 232.46016788 -236.07271172 224.42367783 -236.5 213 C-236.12576611 203.26991882 -234.19028151 195.94356753 -227.43110657 188.7409668 C-226.71789056 187.97940419 -226.71789056 187.97940419 -225.99026614 187.20245647 C-218.62633953 179.40278691 -211.00019313 171.85232989 -203.41479492 164.26953125 C-201.65918543 162.51092428 -199.9037793 160.75211427 -198.14855957 158.99311829 C-193.90351815 154.74020753 -189.65613865 150.48964577 -185.40744164 146.24038798 C-181.95405009 142.78651873 -178.50145444 139.33185583 -175.04940224 135.87664795 C-165.2416472 126.06011073 -155.43182385 116.24564723 -145.61930033 106.43387651 C-145.0924239 105.90704004 -144.56554746 105.38020356 -144.02270508 104.83740234 C-143.49517941 104.30991756 -142.96765375 103.78243278 -142.42414246 103.2389636 C-133.85342889 94.66865749 -125.28773043 86.09335812 -116.72425815 77.51581705 C-107.91130419 68.68849944 -99.09462714 59.86491561 -90.27405626 51.04520893 C-85.32974819 46.10123247 -80.38698357 41.15573559 -75.44823265 36.20620728 C-70.81118886 31.55910801 -66.16899482 26.91719938 -61.52327728 22.27876854 C-59.81956446 20.57610285 -58.11755959 18.87172618 -56.41739082 17.16552162 C-54.09720158 14.83762902 -51.77093654 12.51598131 -49.44303894 10.19580078 C-48.43578987 9.18083637 -48.43578987 9.18083637 -47.40819234 8.14536762 C-34.69291962 -4.47689439 -16.52605148 -8.8415467 0 0 Z " fill="#010101" transform="translate(458,226)"/>
</svg>
